<?xml version="1.0" encoding="utf-8"?>
<!-- Generator: Adobe Illustrator 25.0.1, SVG Export Plug-In . SVG Version: 6.00 Build 0)  -->
<svg version="1.1" id="Layer_1" xmlns="http://www.w3.org/2000/svg" xmlns:xlink="http://www.w3.org/1999/xlink" x="0px" y="0px"
	 viewBox="0 0 294 101.8" style="enable-background:new 0 0 294 101.8;" xml:space="preserve">
<style type="text/css">
	.st0{fill:#2565C7;}
</style>
<g>
	<g>
		<g>
			<path class="st0" d="M25.2,48.9c3.7-3.8,6.8-5.3,10.3-5.3c7.9,0,10.8,7,10.8,21.8c0,14.7-3.5,21.3-11.6,21.3
				c-5.8,0-9.5-4.3-9.5-12C25.2,74.7,25.2,48.9,25.2,48.9z M0,99.4h15.3l4.6-10.5c5.1,8.3,13.5,12.3,23.2,12.3
				c16.2,0,29.6-13.7,29.6-37.3c0-17-7.5-35.5-27.3-35.5c-8.8,0-15.5,3.1-19.8,9.7h-0.3V0H0V99.4z"/>
			<path class="st0" d="M81.5,0h25.2v99.4H81.5V0L81.5,0z"/>
			<path class="st0" d="M118.7,29.5h25.2v69.9h-25.2V29.5z M118.7,0h25.2v19.7h-25.2V0z"/>
			<g>
				<path class="st0" d="M198.2,51.4c-2.4-4.2-5.7-8.9-12-8.9c-5.2,0-7.6,2.2-7.6,4.5c0,11.3,38.8,7.7,38.8,30.9
					c0,15.1-12.9,23.9-31.7,23.9c-17.7,0-29.2-8.4-33.3-19.8l19.6-5.4c3,5.3,6.3,10.2,13.7,10.2c4.7,0,8-2.1,8-5.2
					c0-11.8-38.8-7.1-38.8-31.4c0-7.4,8.2-21.8,30.8-21.8c12.8,0,25.7,5.3,30.3,19L198.2,51.4z"/>
				<path class="st0" d="M265.3,51.4c-2.4-4.2-5.7-8.9-12-8.9c-5.2,0-7.6,2.2-7.6,4.5c0,11.3,38.8,7.7,38.8,30.9
					c0,15.1-12.9,23.9-31.7,23.9c-17.7,0-29.2-8.4-33.3-19.8l19.6-5.4c3,5.3,6.3,10.2,13.7,10.2c4.7,0,8-2.1,8-5.2
					c0-11.8-38.8-7.1-38.8-31.4c0-7.4,8.2-21.8,30.8-21.8c12.8,0,25.7,5.3,30.3,19L265.3,51.4z"/>
			</g>
		</g>
	</g>
</g>
</svg>
